<?xml version="1.0" encoding="UTF-8" standalone="no"?>
<svg width="677.598mm" height="709.877mm"
 viewBox="0 0 2561.9 2683.14"
 xmlns="http://www.w3.org/2000/svg" xmlns:xlink="http://www.w3.org/1999/xlink"  version="1.2" baseProfile="tiny">
<defs>
</defs>
<g fill="none" stroke="black" stroke-width="1" fill-rule="evenodd" stroke-linecap="square" stroke-linejoin="bevel" >

<g fill="none" stroke="#000000" stroke-opacity="1" stroke-width="1" stroke-linecap="square" stroke-linejoin="bevel" transform="matrix(1,0,0,1,969.34,1252.33)"
font-family="Cantarell" font-size="13.3333" font-weight="400" font-style="normal" 
>
</g>

<g fill="none" stroke="#000000" stroke-opacity="1" stroke-width="1" stroke-linecap="square" stroke-linejoin="bevel" transform="matrix(1,0,0,1,969.34,1252.33)"
font-family="Cantarell" font-size="13.3333" font-weight="400" font-style="normal" 
>
</g>

<g fill="none" stroke="#000000" stroke-opacity="1" stroke-width="1" stroke-linecap="square" stroke-linejoin="bevel" transform="matrix(1,0,0,1,969.34,1252.33)"
font-family="Cantarell" font-size="13.3333" font-weight="400" font-style="normal" 
>
</g>

<g fill="none" stroke="#000000" stroke-opacity="1" stroke-width="1.51" stroke-linecap="square" stroke-linejoin="bevel" transform="matrix(1,0,0,1,969.34,1252.33)"
font-family="Cantarell" font-size="13.3333" font-weight="400" font-style="normal" 
>
<polyline fill="none" vector-effect="none" points="-716.225,-16.2066 -226.628,-1242.5 " />
</g>

<g fill="none" stroke="#000000" stroke-opacity="1" stroke-width="1" stroke-linecap="square" stroke-linejoin="bevel" transform="matrix(1,0,0,1,969.34,1252.33)"
font-family="Cantarell" font-size="13.3333" font-weight="400" font-style="normal" 
>
</g>

<g fill="none" stroke="#000000" stroke-opacity="1" stroke-width="1" stroke-linecap="square" stroke-linejoin="bevel" transform="matrix(1,0,0,1,969.34,1252.33)"
font-family="Cantarell" font-size="13.3333" font-weight="400" font-style="normal" 
>
</g>

<g fill="none" stroke="#000000" stroke-opacity="1" stroke-width="1.51" stroke-linecap="square" stroke-linejoin="bevel" transform="matrix(1,0,0,1,969.34,1252.33)"
font-family="Cantarell" font-size="13.3333" font-weight="400" font-style="normal" 
>
<polyline fill="none" vector-effect="none" points="262.972,-1242.5 752.572,-1242.5 " />
</g>

<g fill="none" stroke="#000000" stroke-opacity="1" stroke-width="1" stroke-linecap="square" stroke-linejoin="bevel" transform="matrix(1,0,0,1,969.34,1252.33)"
font-family="Cantarell" font-size="13.3333" font-weight="400" font-style="normal" 
>
</g>

<g fill="none" stroke="#000000" stroke-opacity="1" stroke-width="1" stroke-linecap="square" stroke-linejoin="bevel" transform="matrix(1,0,0,1,969.34,1252.33)"
font-family="Cantarell" font-size="13.3333" font-weight="400" font-style="normal" 
>
</g>

<g fill="none" stroke="#000000" stroke-opacity="1" stroke-width="1.51" stroke-linecap="square" stroke-linejoin="bevel" transform="matrix(1,0,0,1,969.34,1252.33)"
font-family="Cantarell" font-size="13.3333" font-weight="400" font-style="normal" 
>
<polyline fill="none" vector-effect="none" points="752.572,-1242.5 1242.17,-16.2066 " />
</g>

<g fill="none" stroke="#000000" stroke-opacity="1" stroke-width="1" stroke-linecap="square" stroke-linejoin="bevel" transform="matrix(1,0,0,1,969.34,1252.33)"
font-family="Cantarell" font-size="13.3333" font-weight="400" font-style="normal" 
>
</g>

<g fill="none" stroke="#000000" stroke-opacity="1" stroke-width="1" stroke-linecap="square" stroke-linejoin="bevel" transform="matrix(1,0,0,1,969.34,1252.33)"
font-family="Cantarell" font-size="13.3333" font-weight="400" font-style="normal" 
>
</g>

<g fill="none" stroke="#000000" stroke-opacity="1" stroke-width="1.51" stroke-linecap="square" stroke-linejoin="bevel" transform="matrix(1,0,0,1,969.34,1252.33)"
font-family="Cantarell" font-size="13.3333" font-weight="400" font-style="normal" 
>
<polyline fill="none" vector-effect="none" points="1242.17,-16.2066 1486.97,-16.2066 " />
</g>

<g fill="none" stroke="#000000" stroke-opacity="1" stroke-width="1" stroke-linecap="square" stroke-linejoin="bevel" transform="matrix(1,0,0,1,969.34,1252.33)"
font-family="Cantarell" font-size="13.3333" font-weight="400" font-style="normal" 
>
</g>

<g fill="none" stroke="#000000" stroke-opacity="1" stroke-width="1" stroke-linecap="square" stroke-linejoin="bevel" transform="matrix(1,0,0,1,969.34,1252.33)"
font-family="Cantarell" font-size="13.3333" font-weight="400" font-style="normal" 
>
</g>

<g fill="none" stroke="#000000" stroke-opacity="1" stroke-width="1.51" stroke-linecap="square" stroke-linejoin="bevel" transform="matrix(1,0,0,1,969.34,1252.33)"
font-family="Cantarell" font-size="13.3333" font-weight="400" font-style="normal" 
>
<polyline fill="none" vector-effect="none" points="1486.97,-16.2066 1483.05,967.786 " />
</g>

<g fill="none" stroke="#000000" stroke-opacity="1" stroke-width="1" stroke-linecap="square" stroke-linejoin="bevel" transform="matrix(1,0,0,1,969.34,1252.33)"
font-family="Cantarell" font-size="13.3333" font-weight="400" font-style="normal" 
>
</g>

<g fill="none" stroke="#000000" stroke-opacity="1" stroke-width="1" stroke-linecap="square" stroke-linejoin="bevel" transform="matrix(1,0,0,1,969.34,1252.33)"
font-family="Cantarell" font-size="13.3333" font-weight="400" font-style="normal" 
>
</g>

<g fill="none" stroke="#000000" stroke-opacity="1" stroke-width="1.51" stroke-linecap="square" stroke-linejoin="bevel" transform="matrix(1,0,0,1,969.34,1252.33)"
font-family="Cantarell" font-size="13.3333" font-weight="400" font-style="normal" 
>
<polyline fill="none" vector-effect="none" points="1483.05,967.786 1483.05,1360.81 " />
</g>

<g fill="none" stroke="#000000" stroke-opacity="1" stroke-width="1" stroke-linecap="square" stroke-linejoin="bevel" transform="matrix(1,0,0,1,969.34,1252.33)"
font-family="Cantarell" font-size="13.3333" font-weight="400" font-style="normal" 
>
</g>

<g fill="none" stroke="#000000" stroke-opacity="1" stroke-width="1" stroke-linecap="square" stroke-linejoin="bevel" transform="matrix(1,0,0,1,969.34,1252.33)"
font-family="Cantarell" font-size="13.3333" font-weight="400" font-style="normal" 
>
</g>

<g fill="none" stroke="#000000" stroke-opacity="1" stroke-width="1.51" stroke-linecap="square" stroke-linejoin="bevel" transform="matrix(1,0,0,1,969.34,1252.33)"
font-family="Cantarell" font-size="13.3333" font-weight="400" font-style="normal" 
>
<polyline fill="none" vector-effect="none" points="1483.05,1360.81 -957.109,1360.81 " />
</g>

<g fill="none" stroke="#000000" stroke-opacity="1" stroke-width="1" stroke-linecap="square" stroke-linejoin="bevel" transform="matrix(1,0,0,1,969.34,1252.33)"
font-family="Cantarell" font-size="13.3333" font-weight="400" font-style="normal" 
>
</g>

<g fill="none" stroke="#000000" stroke-opacity="1" stroke-width="1" stroke-linecap="square" stroke-linejoin="bevel" transform="matrix(1,0,0,1,12.2306,2613.14)"
font-family="Cantarell" font-size="13.3333" font-weight="400" font-style="normal" 
>
</g>

<g fill="none" stroke="#ff0000" stroke-opacity="1" stroke-width="1.51181" stroke-linecap="square" stroke-linejoin="bevel" transform="matrix(1,0,0,1,12.2306,2613.14)"
font-family="Cantarell" font-size="13.3333" font-weight="400" font-style="normal" 
>
<circle cx="0" cy="0" r="7.55905"/>
</g>

<g fill="none" stroke="#000000" stroke-opacity="1" stroke-width="1" stroke-linecap="square" stroke-linejoin="bevel" transform="matrix(1,0,0,1,12.2306,2613.14)"
font-family="Cantarell" font-size="13.3333" font-weight="400" font-style="normal" 
>
</g>

<g fill="none" stroke="#000000" stroke-opacity="1" stroke-width="1" stroke-linecap="square" stroke-linejoin="bevel" transform="matrix(1,0,0,1,22.2307,2628.14)"
font-family="Cantarell" font-size="13.3333" font-weight="400" font-style="normal" 
>
</g>

<g fill="none" stroke="#000000" stroke-opacity="1" stroke-width="1" stroke-linecap="square" stroke-linejoin="bevel" transform="matrix(1,0,0,1,22.2307,2628.14)"
font-family="Cantarell" font-size="42.6667" font-weight="400" font-style="normal" 
>
<text fill="#000000" fill-opacity="1" stroke="none" xml:space="preserve" x="0" y="42" font-family="Cantarell" font-size="42.6667" font-weight="400" font-style="normal" 
 >A</text>
</g>

<g fill="none" stroke="#000000" stroke-opacity="1" stroke-width="1" stroke-linecap="square" stroke-linejoin="bevel" transform="matrix(1,0,0,1,22.2307,2628.14)"
font-family="Cantarell" font-size="13.3333" font-weight="400" font-style="normal" 
>
</g>

<g fill="none" stroke="#000000" stroke-opacity="1" stroke-width="1" stroke-linecap="square" stroke-linejoin="bevel" transform="matrix(1,0,0,1,12.2306,2220.11)"
font-family="Cantarell" font-size="13.3333" font-weight="400" font-style="normal" 
>
</g>

<g fill="none" stroke="#000000" stroke-opacity="1" stroke-width="1.51" stroke-linecap="square" stroke-linejoin="bevel" transform="matrix(1,0,0,1,12.2306,2220.11)"
font-family="Cantarell" font-size="13.3333" font-weight="400" font-style="normal" 
>
<polyline fill="none" vector-effect="none" points="0,393.024 0,0 " />
</g>

<g fill="none" stroke="#000000" stroke-opacity="1" stroke-width="1" stroke-linecap="square" stroke-linejoin="bevel" transform="matrix(1,0,0,1,12.2306,2220.11)"
font-family="Cantarell" font-size="13.3333" font-weight="400" font-style="normal" 
>
</g>

<g fill="none" stroke="#000000" stroke-opacity="1" stroke-width="1" stroke-linecap="square" stroke-linejoin="bevel" transform="matrix(1,0,0,1,12.2306,2220.11)"
font-family="Cantarell" font-size="13.3333" font-weight="400" font-style="normal" 
>
</g>

<g fill="none" stroke="#000000" stroke-opacity="1" stroke-width="1.51181" stroke-linecap="square" stroke-linejoin="bevel" transform="matrix(1,0,0,1,12.2306,2220.11)"
font-family="Cantarell" font-size="13.3333" font-weight="400" font-style="normal" 
>
<circle cx="0" cy="0" r="7.55905"/>
</g>

<g fill="none" stroke="#000000" stroke-opacity="1" stroke-width="1" stroke-linecap="square" stroke-linejoin="bevel" transform="matrix(1,0,0,1,12.2306,2220.11)"
font-family="Cantarell" font-size="13.3333" font-weight="400" font-style="normal" 
>
</g>

<g fill="none" stroke="#000000" stroke-opacity="1" stroke-width="1" stroke-linecap="square" stroke-linejoin="bevel" transform="matrix(1,0,0,1,22.2307,2235.11)"
font-family="Cantarell" font-size="13.3333" font-weight="400" font-style="normal" 
>
</g>

<g fill="none" stroke="#000000" stroke-opacity="1" stroke-width="1" stroke-linecap="square" stroke-linejoin="bevel" transform="matrix(1,0,0,1,22.2307,2235.11)"
font-family="Cantarell" font-size="42.6667" font-weight="400" font-style="normal" 
>
<text fill="#000000" fill-opacity="1" stroke="none" xml:space="preserve" x="0" y="42" font-family="Cantarell" font-size="42.6667" font-weight="400" font-style="normal" 
 >A1</text>
</g>

<g fill="none" stroke="#000000" stroke-opacity="1" stroke-width="1" stroke-linecap="square" stroke-linejoin="bevel" transform="matrix(1,0,0,1,22.2307,2235.11)"
font-family="Cantarell" font-size="13.3333" font-weight="400" font-style="normal" 
>
</g>

<g fill="none" stroke="#000000" stroke-opacity="1" stroke-width="1" stroke-linecap="square" stroke-linejoin="bevel" transform="matrix(1,0,0,1,8.31495,1236.12)"
font-family="Cantarell" font-size="13.3333" font-weight="400" font-style="normal" 
>
</g>

<g fill="none" stroke="#000000" stroke-opacity="1" stroke-width="1.51" stroke-linecap="square" stroke-linejoin="bevel" transform="matrix(1,0,0,1,8.31495,1236.12)"
font-family="Cantarell" font-size="13.3333" font-weight="400" font-style="normal" 
>
<polyline fill="none" vector-effect="none" points="3.91567,983.992 0,0 " />
</g>

<g fill="none" stroke="#000000" stroke-opacity="1" stroke-width="1" stroke-linecap="square" stroke-linejoin="bevel" transform="matrix(1,0,0,1,8.31495,1236.12)"
font-family="Cantarell" font-size="13.3333" font-weight="400" font-style="normal" 
>
</g>

<g fill="none" stroke="#000000" stroke-opacity="1" stroke-width="1" stroke-linecap="square" stroke-linejoin="bevel" transform="matrix(1,0,0,1,8.31495,1236.12)"
font-family="Cantarell" font-size="13.3333" font-weight="400" font-style="normal" 
>
</g>

<g fill="none" stroke="#000000" stroke-opacity="1" stroke-width="1.51181" stroke-linecap="square" stroke-linejoin="bevel" transform="matrix(1,0,0,1,8.31495,1236.12)"
font-family="Cantarell" font-size="13.3333" font-weight="400" font-style="normal" 
>
<circle cx="0" cy="0" r="7.55905"/>
</g>

<g fill="none" stroke="#000000" stroke-opacity="1" stroke-width="1" stroke-linecap="square" stroke-linejoin="bevel" transform="matrix(1,0,0,1,8.31495,1236.12)"
font-family="Cantarell" font-size="13.3333" font-weight="400" font-style="normal" 
>
</g>

<g fill="none" stroke="#000000" stroke-opacity="1" stroke-width="1" stroke-linecap="square" stroke-linejoin="bevel" transform="matrix(1,0,0,1,18.315,1252.89)"
font-family="Cantarell" font-size="13.3333" font-weight="400" font-style="normal" 
>
</g>

<g fill="none" stroke="#000000" stroke-opacity="1" stroke-width="1" stroke-linecap="square" stroke-linejoin="bevel" transform="matrix(1,0,0,1,18.315,1252.89)"
font-family="Cantarell" font-size="42.6667" font-weight="400" font-style="normal" 
>
<text fill="#000000" fill-opacity="1" stroke="none" xml:space="preserve" x="0" y="42" font-family="Cantarell" font-size="42.6667" font-weight="400" font-style="normal" 
 >A2</text>
</g>

<g fill="none" stroke="#000000" stroke-opacity="1" stroke-width="1" stroke-linecap="square" stroke-linejoin="bevel" transform="matrix(1,0,0,1,18.315,1252.89)"
font-family="Cantarell" font-size="13.3333" font-weight="400" font-style="normal" 
>
</g>

<g fill="none" stroke="#000000" stroke-opacity="1" stroke-width="1" stroke-linecap="square" stroke-linejoin="bevel" transform="matrix(1,0,0,1,253.115,1236.12)"
font-family="Cantarell" font-size="13.3333" font-weight="400" font-style="normal" 
>
</g>

<g fill="none" stroke="#000000" stroke-opacity="1" stroke-width="1.51" stroke-linecap="square" stroke-linejoin="bevel" transform="matrix(1,0,0,1,253.115,1236.12)"
font-family="Cantarell" font-size="13.3333" font-weight="400" font-style="normal" 
>
<polyline fill="none" vector-effect="none" points="-244.8,0 0,0 " />
</g>

<g fill="none" stroke="#000000" stroke-opacity="1" stroke-width="1" stroke-linecap="square" stroke-linejoin="bevel" transform="matrix(1,0,0,1,253.115,1236.12)"
font-family="Cantarell" font-size="13.3333" font-weight="400" font-style="normal" 
>
</g>

<g fill="none" stroke="#000000" stroke-opacity="1" stroke-width="1" stroke-linecap="square" stroke-linejoin="bevel" transform="matrix(1,0,0,1,253.115,1236.12)"
font-family="Cantarell" font-size="13.3333" font-weight="400" font-style="normal" 
>
</g>

<g fill="none" stroke="#000000" stroke-opacity="1" stroke-width="1.51181" stroke-linecap="square" stroke-linejoin="bevel" transform="matrix(1,0,0,1,253.115,1236.12)"
font-family="Cantarell" font-size="13.3333" font-weight="400" font-style="normal" 
>
<circle cx="0" cy="0" r="7.55905"/>
</g>

<g fill="none" stroke="#000000" stroke-opacity="1" stroke-width="1" stroke-linecap="square" stroke-linejoin="bevel" transform="matrix(1,0,0,1,253.115,1236.12)"
font-family="Cantarell" font-size="13.3333" font-weight="400" font-style="normal" 
>
</g>

<g fill="none" stroke="#000000" stroke-opacity="1" stroke-width="1" stroke-linecap="square" stroke-linejoin="bevel" transform="matrix(1,0,0,1,263.115,1251.12)"
font-family="Cantarell" font-size="13.3333" font-weight="400" font-style="normal" 
>
</g>

<g fill="none" stroke="#000000" stroke-opacity="1" stroke-width="1" stroke-linecap="square" stroke-linejoin="bevel" transform="matrix(1,0,0,1,263.115,1251.12)"
font-family="Cantarell" font-size="42.6667" font-weight="400" font-style="normal" 
>
<text fill="#000000" fill-opacity="1" stroke="none" xml:space="preserve" x="0" y="42" font-family="Cantarell" font-size="42.6667" font-weight="400" font-style="normal" 
 >A3</text>
</g>

<g fill="none" stroke="#000000" stroke-opacity="1" stroke-width="1" stroke-linecap="square" stroke-linejoin="bevel" transform="matrix(1,0,0,1,263.115,1251.12)"
font-family="Cantarell" font-size="13.3333" font-weight="400" font-style="normal" 
>
</g>

<g fill="none" stroke="#000000" stroke-opacity="1" stroke-width="1" stroke-linecap="square" stroke-linejoin="bevel" transform="matrix(1,0,0,1,1232.31,1233.83)"
font-family="Cantarell" font-size="13.3333" font-weight="400" font-style="normal" 
>
</g>

<g fill="none" stroke="none" transform="matrix(1,0,0,1,1232.31,1233.83)"
font-family="Cantarell" font-size="13.3333" font-weight="400" font-style="normal" 
>
<polyline fill="none" vector-effect="none" points="-979.197,2.29491 0,0 " />
</g>

<g fill="none" stroke="#000000" stroke-opacity="1" stroke-width="1" stroke-linecap="square" stroke-linejoin="bevel" transform="matrix(1,0,0,1,1232.31,1233.83)"
font-family="Cantarell" font-size="13.3333" font-weight="400" font-style="normal" 
>
</g>

<g fill="none" stroke="#000000" stroke-opacity="1" stroke-width="1" stroke-linecap="square" stroke-linejoin="bevel" transform="matrix(1,0,0,1,1232.31,1233.83)"
font-family="Cantarell" font-size="13.3333" font-weight="400" font-style="normal" 
>
</g>

<g fill="none" stroke="#000000" stroke-opacity="1" stroke-width="1.51181" stroke-linecap="square" stroke-linejoin="bevel" transform="matrix(1,0,0,1,1232.31,1233.83)"
font-family="Cantarell" font-size="13.3333" font-weight="400" font-style="normal" 
>
<circle cx="0" cy="0" r="7.55905"/>
</g>

<g fill="none" stroke="#000000" stroke-opacity="1" stroke-width="1" stroke-linecap="square" stroke-linejoin="bevel" transform="matrix(1,0,0,1,1232.31,1233.83)"
font-family="Cantarell" font-size="13.3333" font-weight="400" font-style="normal" 
>
</g>

<g fill="none" stroke="#000000" stroke-opacity="1" stroke-width="1" stroke-linecap="square" stroke-linejoin="bevel" transform="matrix(1,0,0,1,1242.31,1244.13)"
font-family="Cantarell" font-size="13.3333" font-weight="400" font-style="normal" 
>
</g>

<g fill="none" stroke="#000000" stroke-opacity="1" stroke-width="1" stroke-linecap="square" stroke-linejoin="bevel" transform="matrix(1,0,0,1,1242.31,1244.13)"
font-family="Cantarell" font-size="42.6667" font-weight="400" font-style="normal" 
>
<text fill="#000000" fill-opacity="1" stroke="none" xml:space="preserve" x="0" y="42" font-family="Cantarell" font-size="42.6667" font-weight="400" font-style="normal" 
 >A4</text>
</g>

<g fill="none" stroke="#000000" stroke-opacity="1" stroke-width="1" stroke-linecap="square" stroke-linejoin="bevel" transform="matrix(1,0,0,1,1242.31,1244.13)"
font-family="Cantarell" font-size="13.3333" font-weight="400" font-style="normal" 
>
</g>

<g fill="none" stroke="#000000" stroke-opacity="1" stroke-width="1" stroke-linecap="square" stroke-linejoin="bevel" transform="matrix(1,0,0,1,1232.31,9.82676)"
font-family="Cantarell" font-size="13.3333" font-weight="400" font-style="normal" 
>
</g>

<g fill="none" stroke="none" transform="matrix(1,0,0,1,1232.31,9.82676)"
font-family="Cantarell" font-size="13.3333" font-weight="400" font-style="normal" 
>
<polyline fill="none" vector-effect="none" points="0,1224 0,0 " />
</g>

<g fill="none" stroke="#000000" stroke-opacity="1" stroke-width="1" stroke-linecap="square" stroke-linejoin="bevel" transform="matrix(1,0,0,1,1232.31,9.82676)"
font-family="Cantarell" font-size="13.3333" font-weight="400" font-style="normal" 
>
</g>

<g fill="none" stroke="#000000" stroke-opacity="1" stroke-width="1" stroke-linecap="square" stroke-linejoin="bevel" transform="matrix(1,0,0,1,1232.31,9.82676)"
font-family="Cantarell" font-size="13.3333" font-weight="400" font-style="normal" 
>
</g>

<g fill="none" stroke="#000000" stroke-opacity="1" stroke-width="1.51181" stroke-linecap="square" stroke-linejoin="bevel" transform="matrix(1,0,0,1,1232.31,9.82676)"
font-family="Cantarell" font-size="13.3333" font-weight="400" font-style="normal" 
>
<circle cx="0" cy="0" r="7.55905"/>
</g>

<g fill="none" stroke="#000000" stroke-opacity="1" stroke-width="1" stroke-linecap="square" stroke-linejoin="bevel" transform="matrix(1,0,0,1,1232.31,9.82676)"
font-family="Cantarell" font-size="13.3333" font-weight="400" font-style="normal" 
>
</g>

<g fill="none" stroke="#000000" stroke-opacity="1" stroke-width="1" stroke-linecap="square" stroke-linejoin="bevel" transform="matrix(1,0,0,1,1239.07,28.0652)"
font-family="Cantarell" font-size="13.3333" font-weight="400" font-style="normal" 
>
</g>

<g fill="none" stroke="#000000" stroke-opacity="1" stroke-width="1" stroke-linecap="square" stroke-linejoin="bevel" transform="matrix(1,0,0,1,1239.07,28.0652)"
font-family="Cantarell" font-size="42.6667" font-weight="400" font-style="normal" 
>
<text fill="#000000" fill-opacity="1" stroke="none" xml:space="preserve" x="0" y="42" font-family="Cantarell" font-size="42.6667" font-weight="400" font-style="normal" 
 >A5</text>
</g>

<g fill="none" stroke="#000000" stroke-opacity="1" stroke-width="1" stroke-linecap="square" stroke-linejoin="bevel" transform="matrix(1,0,0,1,1239.07,28.0652)"
font-family="Cantarell" font-size="13.3333" font-weight="400" font-style="normal" 
>
</g>

<g fill="none" stroke="#000000" stroke-opacity="1" stroke-width="1" stroke-linecap="square" stroke-linejoin="bevel" transform="matrix(1,0,0,1,742.712,9.82676)"
font-family="Cantarell" font-size="13.3333" font-weight="400" font-style="normal" 
>
</g>

<g fill="none" stroke="#000000" stroke-opacity="1" stroke-width="1.51" stroke-linecap="square" stroke-linejoin="bevel" transform="matrix(1,0,0,1,742.712,9.82676)"
font-family="Cantarell" font-size="13.3333" font-weight="400" font-style="normal" 
>
<polyline fill="none" vector-effect="none" points="489.6,0 0,0 " />
</g>

<g fill="none" stroke="#000000" stroke-opacity="1" stroke-width="1" stroke-linecap="square" stroke-linejoin="bevel" transform="matrix(1,0,0,1,742.712,9.82676)"
font-family="Cantarell" font-size="13.3333" font-weight="400" font-style="normal" 
>
</g>

<g fill="none" stroke="#000000" stroke-opacity="1" stroke-width="1" stroke-linecap="square" stroke-linejoin="bevel" transform="matrix(1,0,0,1,742.712,9.82676)"
font-family="Cantarell" font-size="13.3333" font-weight="400" font-style="normal" 
>
</g>

<g fill="none" stroke="#000000" stroke-opacity="1" stroke-width="1.51181" stroke-linecap="square" stroke-linejoin="bevel" transform="matrix(1,0,0,1,742.712,9.82676)"
font-family="Cantarell" font-size="13.3333" font-weight="400" font-style="normal" 
>
<circle cx="0" cy="0" r="7.55905"/>
</g>

<g fill="none" stroke="#000000" stroke-opacity="1" stroke-width="1" stroke-linecap="square" stroke-linejoin="bevel" transform="matrix(1,0,0,1,742.712,9.82676)"
font-family="Cantarell" font-size="13.3333" font-weight="400" font-style="normal" 
>
</g>

<g fill="none" stroke="#000000" stroke-opacity="1" stroke-width="1" stroke-linecap="square" stroke-linejoin="bevel" transform="matrix(1,0,0,1,752.712,24.8268)"
font-family="Cantarell" font-size="13.3333" font-weight="400" font-style="normal" 
>
</g>

<g fill="none" stroke="#000000" stroke-opacity="1" stroke-width="1" stroke-linecap="square" stroke-linejoin="bevel" transform="matrix(1,0,0,1,752.712,24.8268)"
font-family="Cantarell" font-size="42.6667" font-weight="400" font-style="normal" 
>
<text fill="#000000" fill-opacity="1" stroke="none" xml:space="preserve" x="0" y="42" font-family="Cantarell" font-size="42.6667" font-weight="400" font-style="normal" 
 >A6</text>
</g>

<g fill="none" stroke="#000000" stroke-opacity="1" stroke-width="1" stroke-linecap="square" stroke-linejoin="bevel" transform="matrix(1,0,0,1,752.712,24.8268)"
font-family="Cantarell" font-size="13.3333" font-weight="400" font-style="normal" 
>
</g>

<g fill="none" stroke="#000000" stroke-opacity="1" stroke-width="1" stroke-linecap="square" stroke-linejoin="bevel" transform="matrix(1,0,0,1,969.34,1252.33)"
font-family="Cantarell" font-size="13.3333" font-weight="400" font-style="normal" 
>
</g>

<g fill="none" stroke="#000000" stroke-opacity="1" stroke-width="1" stroke-linecap="square" stroke-linejoin="bevel" transform="matrix(1,0,0,1,969.34,1252.33)"
font-family="Cantarell" font-size="13.3333" font-weight="400" font-style="normal" 
>
</g>

<g fill="none" stroke="#000000" stroke-opacity="1" stroke-width="1" stroke-linecap="square" stroke-linejoin="bevel" transform="matrix(1,0,0,1,2452.39,2613.14)"
font-family="Cantarell" font-size="13.3333" font-weight="400" font-style="normal" 
>
</g>

<g fill="none" stroke="#000000" stroke-opacity="1" stroke-width="1.51181" stroke-linecap="square" stroke-linejoin="bevel" transform="matrix(1,0,0,1,2452.39,2613.14)"
font-family="Cantarell" font-size="13.3333" font-weight="400" font-style="normal" 
>
<circle cx="0" cy="0" r="7.55905"/>
</g>

<g fill="none" stroke="#000000" stroke-opacity="1" stroke-width="1" stroke-linecap="square" stroke-linejoin="bevel" transform="matrix(1,0,0,1,2452.39,2613.14)"
font-family="Cantarell" font-size="13.3333" font-weight="400" font-style="normal" 
>
</g>

<g fill="none" stroke="#000000" stroke-opacity="1" stroke-width="1" stroke-linecap="square" stroke-linejoin="bevel" transform="matrix(1,0,0,1,2462.39,2628.14)"
font-family="Cantarell" font-size="13.3333" font-weight="400" font-style="normal" 
>
</g>

<g fill="none" stroke="#000000" stroke-opacity="1" stroke-width="1" stroke-linecap="square" stroke-linejoin="bevel" transform="matrix(1,0,0,1,2462.39,2628.14)"
font-family="Cantarell" font-size="42.6667" font-weight="400" font-style="normal" 
>
<text fill="#000000" fill-opacity="1" stroke="none" xml:space="preserve" x="0" y="42" font-family="Cantarell" font-size="42.6667" font-weight="400" font-style="normal" 
 >Aa1</text>
</g>

<g fill="none" stroke="#000000" stroke-opacity="1" stroke-width="1" stroke-linecap="square" stroke-linejoin="bevel" transform="matrix(1,0,0,1,2462.39,2628.14)"
font-family="Cantarell" font-size="13.3333" font-weight="400" font-style="normal" 
>
</g>

<g fill="none" stroke="#000000" stroke-opacity="1" stroke-width="1" stroke-linecap="square" stroke-linejoin="bevel" transform="matrix(1,0,0,1,2452.39,2220.11)"
font-family="Cantarell" font-size="13.3333" font-weight="400" font-style="normal" 
>
</g>

<g fill="none" stroke="#000000" stroke-opacity="1" stroke-width="1.51181" stroke-linecap="square" stroke-linejoin="bevel" transform="matrix(1,0,0,1,2452.39,2220.11)"
font-family="Cantarell" font-size="13.3333" font-weight="400" font-style="normal" 
>
<circle cx="0" cy="0" r="7.55905"/>
</g>

<g fill="none" stroke="#000000" stroke-opacity="1" stroke-width="1" stroke-linecap="square" stroke-linejoin="bevel" transform="matrix(1,0,0,1,2452.39,2220.11)"
font-family="Cantarell" font-size="13.3333" font-weight="400" font-style="normal" 
>
</g>

<g fill="none" stroke="#000000" stroke-opacity="1" stroke-width="1" stroke-linecap="square" stroke-linejoin="bevel" transform="matrix(1,0,0,1,2462.39,2235.11)"
font-family="Cantarell" font-size="13.3333" font-weight="400" font-style="normal" 
>
</g>

<g fill="none" stroke="#000000" stroke-opacity="1" stroke-width="1" stroke-linecap="square" stroke-linejoin="bevel" transform="matrix(1,0,0,1,2462.39,2235.11)"
font-family="Cantarell" font-size="42.6667" font-weight="400" font-style="normal" 
>
<text fill="#000000" fill-opacity="1" stroke="none" xml:space="preserve" x="0" y="42" font-family="Cantarell" font-size="42.6667" font-weight="400" font-style="normal" 
 >A1a1</text>
</g>

<g fill="none" stroke="#000000" stroke-opacity="1" stroke-width="1" stroke-linecap="square" stroke-linejoin="bevel" transform="matrix(1,0,0,1,2462.39,2235.11)"
font-family="Cantarell" font-size="13.3333" font-weight="400" font-style="normal" 
>
</g>

<g fill="none" stroke="#000000" stroke-opacity="1" stroke-width="1" stroke-linecap="square" stroke-linejoin="bevel" transform="matrix(1,0,0,1,2452.39,2220.11)"
font-family="Cantarell" font-size="13.3333" font-weight="400" font-style="normal" 
>
</g>

<g fill="none" stroke="#000000" stroke-opacity="0.196078" stroke-width="1.51" stroke-linecap="square" stroke-linejoin="bevel" transform="matrix(1,0,0,1,2452.39,2220.11)"
font-family="Cantarell" font-size="13.3333" font-weight="400" font-style="normal" 
>
<polyline fill="none" vector-effect="none" points="6.08984,4.47806 20.3989,15 " />
</g>

<g fill="none" stroke="#000000" stroke-opacity="1" stroke-width="1" stroke-linecap="square" stroke-linejoin="bevel" transform="matrix(1,0,0,1,2452.39,2220.11)"
font-family="Cantarell" font-size="13.3333" font-weight="400" font-style="normal" 
>
</g>

<g fill="none" stroke="#000000" stroke-opacity="1" stroke-width="1" stroke-linecap="square" stroke-linejoin="bevel" transform="matrix(1,0,0,1,2456.31,1236.12)"
font-family="Cantarell" font-size="13.3333" font-weight="400" font-style="normal" 
>
</g>

<g fill="none" stroke="#000000" stroke-opacity="1" stroke-width="1.51181" stroke-linecap="square" stroke-linejoin="bevel" transform="matrix(1,0,0,1,2456.31,1236.12)"
font-family="Cantarell" font-size="13.3333" font-weight="400" font-style="normal" 
>
<circle cx="0" cy="0" r="7.55905"/>
</g>

<g fill="none" stroke="#000000" stroke-opacity="1" stroke-width="1" stroke-linecap="square" stroke-linejoin="bevel" transform="matrix(1,0,0,1,2456.31,1236.12)"
font-family="Cantarell" font-size="13.3333" font-weight="400" font-style="normal" 
>
</g>

<g fill="none" stroke="#000000" stroke-opacity="1" stroke-width="1" stroke-linecap="square" stroke-linejoin="bevel" transform="matrix(1,0,0,1,2466.31,1252.89)"
font-family="Cantarell" font-size="13.3333" font-weight="400" font-style="normal" 
>
</g>

<g fill="none" stroke="#000000" stroke-opacity="1" stroke-width="1" stroke-linecap="square" stroke-linejoin="bevel" transform="matrix(1,0,0,1,2466.31,1252.89)"
font-family="Cantarell" font-size="42.6667" font-weight="400" font-style="normal" 
>
<text fill="#000000" fill-opacity="1" stroke="none" xml:space="preserve" x="0" y="42" font-family="Cantarell" font-size="42.6667" font-weight="400" font-style="normal" 
 >A2a1</text>
</g>

<g fill="none" stroke="#000000" stroke-opacity="1" stroke-width="1" stroke-linecap="square" stroke-linejoin="bevel" transform="matrix(1,0,0,1,2466.31,1252.89)"
font-family="Cantarell" font-size="13.3333" font-weight="400" font-style="normal" 
>
</g>

<g fill="none" stroke="#000000" stroke-opacity="1" stroke-width="1" stroke-linecap="square" stroke-linejoin="bevel" transform="matrix(1,0,0,1,2456.31,1236.12)"
font-family="Cantarell" font-size="13.3333" font-weight="400" font-style="normal" 
>
</g>

<g fill="none" stroke="#000000" stroke-opacity="0.196078" stroke-width="1.51" stroke-linecap="square" stroke-linejoin="bevel" transform="matrix(1,0,0,1,2456.31,1236.12)"
font-family="Cantarell" font-size="13.3333" font-weight="400" font-style="normal" 
>
<polyline fill="none" vector-effect="none" points="6.00115,4.59624 21.8912,16.7663 " />
</g>

<g fill="none" stroke="#000000" stroke-opacity="1" stroke-width="1" stroke-linecap="square" stroke-linejoin="bevel" transform="matrix(1,0,0,1,2456.31,1236.12)"
font-family="Cantarell" font-size="13.3333" font-weight="400" font-style="normal" 
>
</g>

<g fill="none" stroke="#000000" stroke-opacity="1" stroke-width="1" stroke-linecap="square" stroke-linejoin="bevel" transform="matrix(1,0,0,1,2211.51,1236.12)"
font-family="Cantarell" font-size="13.3333" font-weight="400" font-style="normal" 
>
</g>

<g fill="none" stroke="#000000" stroke-opacity="1" stroke-width="1.51181" stroke-linecap="square" stroke-linejoin="bevel" transform="matrix(1,0,0,1,2211.51,1236.12)"
font-family="Cantarell" font-size="13.3333" font-weight="400" font-style="normal" 
>
<circle cx="0" cy="0" r="7.55905"/>
</g>

<g fill="none" stroke="#000000" stroke-opacity="1" stroke-width="1" stroke-linecap="square" stroke-linejoin="bevel" transform="matrix(1,0,0,1,2211.51,1236.12)"
font-family="Cantarell" font-size="13.3333" font-weight="400" font-style="normal" 
>
</g>

<g fill="none" stroke="#000000" stroke-opacity="1" stroke-width="1" stroke-linecap="square" stroke-linejoin="bevel" transform="matrix(1,0,0,1,2221.51,1251.12)"
font-family="Cantarell" font-size="13.3333" font-weight="400" font-style="normal" 
>
</g>

<g fill="none" stroke="#000000" stroke-opacity="1" stroke-width="1" stroke-linecap="square" stroke-linejoin="bevel" transform="matrix(1,0,0,1,2221.51,1251.12)"
font-family="Cantarell" font-size="42.6667" font-weight="400" font-style="normal" 
>
<text fill="#000000" fill-opacity="1" stroke="none" xml:space="preserve" x="0" y="42" font-family="Cantarell" font-size="42.6667" font-weight="400" font-style="normal" 
 >A3a1</text>
</g>

<g fill="none" stroke="#000000" stroke-opacity="1" stroke-width="1" stroke-linecap="square" stroke-linejoin="bevel" transform="matrix(1,0,0,1,2221.51,1251.12)"
font-family="Cantarell" font-size="13.3333" font-weight="400" font-style="normal" 
>
</g>

<g fill="none" stroke="#000000" stroke-opacity="1" stroke-width="1" stroke-linecap="square" stroke-linejoin="bevel" transform="matrix(1,0,0,1,2211.51,1236.12)"
font-family="Cantarell" font-size="13.3333" font-weight="400" font-style="normal" 
>
</g>

<g fill="none" stroke="#000000" stroke-opacity="0.196078" stroke-width="1.51" stroke-linecap="square" stroke-linejoin="bevel" transform="matrix(1,0,0,1,2211.51,1236.12)"
font-family="Cantarell" font-size="13.3333" font-weight="400" font-style="normal" 
>
<polyline fill="none" vector-effect="none" points="6.08984,4.47806 20.3989,15 " />
</g>

<g fill="none" stroke="#000000" stroke-opacity="1" stroke-width="1" stroke-linecap="square" stroke-linejoin="bevel" transform="matrix(1,0,0,1,2211.51,1236.12)"
font-family="Cantarell" font-size="13.3333" font-weight="400" font-style="normal" 
>
</g>

<g fill="none" stroke="#000000" stroke-opacity="1" stroke-width="1" stroke-linecap="square" stroke-linejoin="bevel" transform="matrix(1,0,0,1,1721.91,9.82676)"
font-family="Cantarell" font-size="13.3333" font-weight="400" font-style="normal" 
>
</g>

<g fill="none" stroke="#000000" stroke-opacity="1" stroke-width="1.51181" stroke-linecap="square" stroke-linejoin="bevel" transform="matrix(1,0,0,1,1721.91,9.82676)"
font-family="Cantarell" font-size="13.3333" font-weight="400" font-style="normal" 
>
<circle cx="0" cy="0" r="7.55905"/>
</g>

<g fill="none" stroke="#000000" stroke-opacity="1" stroke-width="1" stroke-linecap="square" stroke-linejoin="bevel" transform="matrix(1,0,0,1,1721.91,9.82676)"
font-family="Cantarell" font-size="13.3333" font-weight="400" font-style="normal" 
>
</g>

<g fill="none" stroke="#000000" stroke-opacity="1" stroke-width="1" stroke-linecap="square" stroke-linejoin="bevel" transform="matrix(1,0,0,1,1731.91,24.8268)"
font-family="Cantarell" font-size="13.3333" font-weight="400" font-style="normal" 
>
</g>

<g fill="none" stroke="#000000" stroke-opacity="1" stroke-width="1" stroke-linecap="square" stroke-linejoin="bevel" transform="matrix(1,0,0,1,1731.91,24.8268)"
font-family="Cantarell" font-size="42.6667" font-weight="400" font-style="normal" 
>
<text fill="#000000" fill-opacity="1" stroke="none" xml:space="preserve" x="0" y="42" font-family="Cantarell" font-size="42.6667" font-weight="400" font-style="normal" 
 >A6a1</text>
</g>

<g fill="none" stroke="#000000" stroke-opacity="1" stroke-width="1" stroke-linecap="square" stroke-linejoin="bevel" transform="matrix(1,0,0,1,1731.91,24.8268)"
font-family="Cantarell" font-size="13.3333" font-weight="400" font-style="normal" 
>
</g>

<g fill="none" stroke="#000000" stroke-opacity="1" stroke-width="1" stroke-linecap="square" stroke-linejoin="bevel" transform="matrix(1,0,0,1,1721.91,9.82676)"
font-family="Cantarell" font-size="13.3333" font-weight="400" font-style="normal" 
>
</g>

<g fill="none" stroke="#000000" stroke-opacity="0.196078" stroke-width="1.51" stroke-linecap="square" stroke-linejoin="bevel" transform="matrix(1,0,0,1,1721.91,9.82676)"
font-family="Cantarell" font-size="13.3333" font-weight="400" font-style="normal" 
>
<polyline fill="none" vector-effect="none" points="6.08984,4.47806 20.3989,15 " />
</g>

<g fill="none" stroke="#000000" stroke-opacity="1" stroke-width="1" stroke-linecap="square" stroke-linejoin="bevel" transform="matrix(1,0,0,1,1721.91,9.82676)"
font-family="Cantarell" font-size="13.3333" font-weight="400" font-style="normal" 
>
</g>

<g fill="none" stroke="#000000" stroke-opacity="1" stroke-width="1" stroke-linecap="square" stroke-linejoin="bevel" transform="matrix(1,0,0,1,1232.31,9.82676)"
font-family="Cantarell" font-size="13.3333" font-weight="400" font-style="normal" 
>
</g>

<g fill="none" stroke="#000000" stroke-opacity="1" stroke-width="1.51181" stroke-linecap="square" stroke-linejoin="bevel" transform="matrix(1,0,0,1,1232.31,9.82676)"
font-family="Cantarell" font-size="13.3333" font-weight="400" font-style="normal" 
>
<circle cx="0" cy="0" r="7.55905"/>
</g>

<g fill="none" stroke="#000000" stroke-opacity="1" stroke-width="1" stroke-linecap="square" stroke-linejoin="bevel" transform="matrix(1,0,0,1,1232.31,9.82676)"
font-family="Cantarell" font-size="13.3333" font-weight="400" font-style="normal" 
>
</g>

<g fill="none" stroke="#000000" stroke-opacity="1" stroke-width="1" stroke-linecap="square" stroke-linejoin="bevel" transform="matrix(1,0,0,1,1374.75,54.6562)"
font-family="Cantarell" font-size="13.3333" font-weight="400" font-style="normal" 
>
</g>

<g fill="none" stroke="#000000" stroke-opacity="1" stroke-width="1" stroke-linecap="square" stroke-linejoin="bevel" transform="matrix(1,0,0,1,1374.75,54.6562)"
font-family="Cantarell" font-size="42.6667" font-weight="400" font-style="normal" 
>
<text fill="#000000" fill-opacity="1" stroke="none" xml:space="preserve" x="0" y="42" font-family="Cantarell" font-size="42.6667" font-weight="400" font-style="normal" 
 >A5a1</text>
</g>

<g fill="none" stroke="#000000" stroke-opacity="1" stroke-width="1" stroke-linecap="square" stroke-linejoin="bevel" transform="matrix(1,0,0,1,1374.75,54.6562)"
font-family="Cantarell" font-size="13.3333" font-weight="400" font-style="normal" 
>
</g>

<g fill="none" stroke="#000000" stroke-opacity="1" stroke-width="1" stroke-linecap="square" stroke-linejoin="bevel" transform="matrix(1,0,0,1,1232.31,9.82676)"
font-family="Cantarell" font-size="13.3333" font-weight="400" font-style="normal" 
>
</g>

<g fill="none" stroke="#000000" stroke-opacity="0.196078" stroke-width="1.51" stroke-linecap="square" stroke-linejoin="bevel" transform="matrix(1,0,0,1,1232.31,9.82676)"
font-family="Cantarell" font-size="13.3333" font-weight="400" font-style="normal" 
>
<polyline fill="none" vector-effect="none" points="7.06558,2.68641 142.438,54.1565 " />
</g>

<g fill="none" stroke="#000000" stroke-opacity="1" stroke-width="1" stroke-linecap="square" stroke-linejoin="bevel" transform="matrix(1,0,0,1,1232.31,9.82676)"
font-family="Cantarell" font-size="13.3333" font-weight="400" font-style="normal" 
>
</g>

<g fill="none" stroke="#000000" stroke-opacity="1" stroke-width="1" stroke-linecap="square" stroke-linejoin="bevel" transform="matrix(1,0,0,1,969.34,1252.33)"
font-family="Cantarell" font-size="13.3333" font-weight="400" font-style="normal" 
>
</g>

<g fill="none" stroke="#000000" stroke-opacity="1" stroke-width="1.51181" stroke-linecap="round" stroke-linejoin="bevel" transform="matrix(1,0,0,1,969.34,1252.33)"
font-family="Cantarell" font-size="13.3333" font-weight="400" font-style="normal" 
>
<path vector-effect="none" fill-rule="evenodd" d="M-226.628,-1242.5 L-217.787,-1235.33 L-197.958,-1221.61 L-175.709,-1208.64 L-151.214,-1196.44 L-124.645,-1185.03 L-96.174,-1174.42 L-65.975,-1164.64 L-34.2204,-1155.69 L-1.08329,-1147.59 L33.2636,-1140.36 L68.6475,-1134.01 L104.895,-1128.57 L141.834,-1124.05 L179.292,-1120.45 L217.095,-1117.81 L255.07,-1116.14 L293.046,-1115.44 L330.848,-1115.75 L368.304,-1117.07 L405.242,-1119.42 L441.487,-1122.82 L476.869,-1127.28 L511.213,-1132.82 L544.346,-1139.46 L576.097,-1147.21 L606.291,-1156.09 L634.757,-1166.12 L661.321,-1177.31 L685.811,-1189.67 L708.053,-1203.23 L727.874,-1217.99 L745.103,-1233.99 L752.572,-1242.5"/>
</g>

<g fill="none" stroke="#000000" stroke-opacity="1" stroke-width="1" stroke-linecap="square" stroke-linejoin="bevel" transform="matrix(1,0,0,1,969.34,1252.33)"
font-family="Cantarell" font-size="13.3333" font-weight="400" font-style="normal" 
>
</g>

<g fill="none" stroke="#000000" stroke-opacity="1" stroke-width="1" stroke-linecap="square" stroke-linejoin="bevel" transform="matrix(1,0,0,1,926.563,164.096)"
font-family="Cantarell" font-size="13.3333" font-weight="400" font-style="normal" 
>
</g>

<g fill="none" stroke="#ff0000" stroke-opacity="1" stroke-width="1.51181" stroke-linecap="square" stroke-linejoin="bevel" transform="matrix(1,0,0,1,926.563,164.096)"
font-family="Cantarell" font-size="13.3333" font-weight="400" font-style="normal" 
>
<circle cx="0" cy="0" r="7.55905"/>
</g>

<g fill="none" stroke="#000000" stroke-opacity="1" stroke-width="1" stroke-linecap="square" stroke-linejoin="bevel" transform="matrix(1,0,0,1,926.563,164.096)"
font-family="Cantarell" font-size="13.3333" font-weight="400" font-style="normal" 
>
</g>

<g fill="none" stroke="#000000" stroke-opacity="1" stroke-width="1" stroke-linecap="square" stroke-linejoin="bevel" transform="matrix(1,0,0,1,926.563,164.096)"
font-family="Cantarell" font-size="13.3333" font-weight="400" font-style="normal" 
>
</g>

<g fill="none" stroke="#000000" stroke-opacity="1" stroke-width="1.51" stroke-linecap="square" stroke-linejoin="bevel" transform="matrix(1,0,0,1,926.563,164.096)"
font-family="Cantarell" font-size="13.3333" font-weight="400" font-style="normal" 
>
<polyline fill="none" vector-effect="none" points="-183.851,-154.269 -5.79057,-4.85886 " />
</g>

<g fill="none" stroke="#000000" stroke-opacity="1" stroke-width="1" stroke-linecap="square" stroke-linejoin="bevel" transform="matrix(1,0,0,1,926.563,164.096)"
font-family="Cantarell" font-size="13.3333" font-weight="400" font-style="normal" 
>
</g>

<g fill="none" stroke="#000000" stroke-opacity="1" stroke-width="1" stroke-linecap="square" stroke-linejoin="bevel" transform="matrix(1,0,0,1,1567.64,193.677)"
font-family="Cantarell" font-size="13.3333" font-weight="400" font-style="normal" 
>
</g>

<g fill="none" stroke="#ff0000" stroke-opacity="1" stroke-width="1.51181" stroke-linecap="square" stroke-linejoin="bevel" transform="matrix(1,0,0,1,1567.64,193.677)"
font-family="Cantarell" font-size="13.3333" font-weight="400" font-style="normal" 
>
<circle cx="0" cy="0" r="7.55905"/>
</g>

<g fill="none" stroke="#000000" stroke-opacity="1" stroke-width="1" stroke-linecap="square" stroke-linejoin="bevel" transform="matrix(1,0,0,1,1567.64,193.677)"
font-family="Cantarell" font-size="13.3333" font-weight="400" font-style="normal" 
>
</g>

<g fill="none" stroke="#000000" stroke-opacity="1" stroke-width="1" stroke-linecap="square" stroke-linejoin="bevel" transform="matrix(1,0,0,1,1567.64,193.677)"
font-family="Cantarell" font-size="13.3333" font-weight="400" font-style="normal" 
>
</g>

<g fill="none" stroke="#000000" stroke-opacity="1" stroke-width="1.51" stroke-linecap="square" stroke-linejoin="bevel" transform="matrix(1,0,0,1,1567.64,193.677)"
font-family="Cantarell" font-size="13.3333" font-weight="400" font-style="normal" 
>
<polyline fill="none" vector-effect="none" points="154.269,-183.851 4.85886,-5.79057 " />
</g>

<g fill="none" stroke="#000000" stroke-opacity="1" stroke-width="1" stroke-linecap="square" stroke-linejoin="bevel" transform="matrix(1,0,0,1,1567.64,193.677)"
font-family="Cantarell" font-size="13.3333" font-weight="400" font-style="normal" 
>
</g>

<g fill="none" stroke="#000000" stroke-opacity="1" stroke-width="1" stroke-linecap="square" stroke-linejoin="bevel" transform="matrix(1,0,0,1,742.712,9.82676)"
font-family="Cantarell" font-size="13.3333" font-weight="400" font-style="normal" 
>
</g>

<g fill="none" stroke="#ff00ff" stroke-opacity="1" stroke-width="4.53542" stroke-linecap="square" stroke-linejoin="bevel" transform="matrix(1,0,0,1,742.712,9.82676)"
font-family="Cantarell" font-size="13.3333" font-weight="400" font-style="normal" 
>
<circle cx="0" cy="0" r="7.55905"/>
</g>

<g fill="none" stroke="#000000" stroke-opacity="1" stroke-width="1" stroke-linecap="square" stroke-linejoin="bevel" transform="matrix(1,0,0,1,742.712,9.82676)"
font-family="Cantarell" font-size="13.3333" font-weight="400" font-style="normal" 
>
</g>

<g fill="none" stroke="#000000" stroke-opacity="1" stroke-width="1" stroke-linecap="square" stroke-linejoin="bevel" transform="matrix(1,0,0,1,1721.91,9.82676)"
font-family="Cantarell" font-size="13.3333" font-weight="400" font-style="normal" 
>
</g>

<g fill="none" stroke="#ff00ff" stroke-opacity="1" stroke-width="4.53542" stroke-linecap="square" stroke-linejoin="bevel" transform="matrix(1,0,0,1,1721.91,9.82676)"
font-family="Cantarell" font-size="13.3333" font-weight="400" font-style="normal" 
>
<circle cx="0" cy="0" r="7.55905"/>
</g>

<g fill="none" stroke="#000000" stroke-opacity="1" stroke-width="1" stroke-linecap="square" stroke-linejoin="bevel" transform="matrix(1,0,0,1,1721.91,9.82676)"
font-family="Cantarell" font-size="13.3333" font-weight="400" font-style="normal" 
>
</g>

<g fill="none" stroke="#000000" stroke-opacity="1" stroke-width="1" stroke-linecap="square" stroke-linejoin="bevel" transform="matrix(1,0,0,1,969.34,1252.33)"
font-family="Cantarell" font-size="13.3333" font-weight="400" font-style="normal" 
>
</g>

<g fill="none" stroke="#ff0000" stroke-opacity="1" stroke-width="4.53542" stroke-linecap="round" stroke-linejoin="bevel" transform="matrix(1,0,0,1,969.34,1252.33)"
font-family="Cantarell" font-size="13.3333" font-weight="400" font-style="normal" 
>
<path vector-effect="none" fill-rule="evenodd" d="M266.018,-1115.94 L258.256,-1121.58 M266.018,-1115.94 L258.055,-1110.57"/>
</g>

<g fill="none" stroke="#000000" stroke-opacity="1" stroke-width="1" stroke-linecap="square" stroke-linejoin="bevel" transform="matrix(1,0,0,1,969.34,1252.33)"
font-family="Cantarell" font-size="13.3333" font-weight="400" font-style="normal" 
>
</g>

<g fill="none" stroke="#ff0000" stroke-opacity="1" stroke-width="4.53542" stroke-linecap="round" stroke-linejoin="bevel" transform="matrix(1,0,0,1,969.34,1252.33)"
font-family="Cantarell" font-size="13.3333" font-weight="400" font-style="normal" 
>
<path vector-effect="none" fill-rule="evenodd" d="M-226.628,-1242.5 L-217.787,-1235.33 L-197.958,-1221.61 L-175.709,-1208.64 L-151.214,-1196.44 L-124.645,-1185.03 L-96.174,-1174.42 L-65.975,-1164.64 L-34.2204,-1155.69 L-1.08329,-1147.59 L33.2636,-1140.36 L68.6475,-1134.01 L104.895,-1128.57 L141.834,-1124.05 L179.292,-1120.45 L217.095,-1117.81 L255.07,-1116.14 L293.046,-1115.44 L330.848,-1115.75 L368.304,-1117.07 L405.242,-1119.42 L441.487,-1122.82 L476.869,-1127.28 L511.213,-1132.82 L544.346,-1139.46 L576.097,-1147.21 L606.291,-1156.09 L634.757,-1166.12 L661.321,-1177.31 L685.811,-1189.67 L708.053,-1203.23 L727.874,-1217.99 L745.103,-1233.99 L752.572,-1242.5"/>
</g>

<g fill="none" stroke="#000000" stroke-opacity="1" stroke-width="1" stroke-linecap="square" stroke-linejoin="bevel" transform="matrix(1,0,0,1,969.34,1252.33)"
font-family="Cantarell" font-size="13.3333" font-weight="400" font-style="normal" 
>
</g>

<g fill="none" stroke="#000000" stroke-opacity="1" stroke-width="1" stroke-linecap="square" stroke-linejoin="bevel" transform="matrix(1,0,0,1,969.34,1252.33)"
font-family="Cantarell" font-size="13.3333" font-weight="400" font-style="normal" 
>
</g>
</g>
</svg>
